# xmcd
#
# Track frame offsets:
# 150
# 14230
# 29519
# 46714
# 62944
# 78486
# 97578
# 110663
# 129541
# 144509
# 160215
#
# Disc length: 2317 seconds
#
#
# Revision: 0
# Processed by: cddbd v1.5.1PL0 Copyright (c) Steve Scherf et al.
# Submitted via: FreeRIP 2.941 
#
DISCID=91090b0b
DTITLE=La Guardia - Ahora !!!
DYEAR=2004
DGENRE=Country
TTITLE0=Los mapas siempre mienten
TTITLE1=La carretera
TTITLE2=Mil calles llevan hacia ti
TTITLE3=Vamonos
TTITLE4=Blues de la nacional II
TTITLE5=Oh! Nena
TTITLE6=No habra mas tardes
TTITLE7=Cuando brille el sol
TTITLE8=Culpable o inocente
TTITLE9=Mañana
TTITLE10=Pajaros en mi cabeza
EXTD=
EXTT0=
EXTT1=
EXTT2=
EXTT3=
EXTT4=
EXTT5=
EXTT6=
EXTT7=
EXTT8=
EXTT9=
EXTT10=
PLAYORDER=
